<svg width="200" height="32" viewBox="0 0 200 32" fill="none" xmlns="http://www.w3.org/2000/svg">
  <!-- G6 (Bold) -->
  <g fill="#ffffff">
    <!-- G -->
    <path d="M13.5 8C9.91 8 7 10.91 7 14.5V17.5C7 21.09 9.91 24 13.5 24C16.37 24 18.77 22.13 19.67 19.5H16.5V17H22V14.5C22 10.91 19.09 8 15.5 8H13.5ZM13.5 10.5H15.5C17.71 10.5 19.5 12.29 19.5 14.5V14.5H16.5V17H19.5V17.5C19.5 19.71 17.71 21.5 15.5 21.5H13.5C11.29 21.5 9.5 19.71 9.5 17.5V14.5C9.5 12.29 11.29 10.5 13.5 10.5Z"/>

    <!-- 6 -->
    <path d="M31.5 8C27.91 8 25 10.91 25 14.5V17.5C25 21.09 27.91 24 31.5 24C35.09 24 38 21.09 38 17.5V17H35.5V17.5C35.5 19.71 33.71 21.5 31.5 21.5C29.29 21.5 27.5 19.71 27.5 17.5V16.5H38V14.5C38 10.91 35.09 8 31.5 8ZM31.5 10.5C33.71 10.5 35.5 12.29 35.5 14.5V14H27.5V14.5C27.5 12.29 29.29 10.5 31.5 10.5Z"/>
  </g>

  <!-- Intelligence (Light) -->
  <g fill="#ffffff" fill-opacity="0.9">
    <path d="M76 9H78V23H76V9Z"/>
    <path d="M83 13H85V15.5C85.5 14.3 86.8 13 88.5 13C90.9 13 92 14.5 92 17V23H90V17.5C90 15.8 89.3 15 88 15C86.5 15 85 16.2 85 18V23H83V13Z"/>
    <path d="M97 13H99V15C99.6 13.8 100.8 13 102.2 13C103.2 13 104 13.4 104.5 14.2C105.2 13.4 106.2 13 107.5 13C109.7 13 111 14.3 111 16.5V23H109V17C109 15.5 108.3 15 107.2 15C106 15 105 15.8 105 17.5V23H103V17C103 15.5 102.3 15 101.2 15C100 15 99 15.8 99 17.5V23H97V13Z"/>
    <path d="M116 13H118V15C118.6 13.7 119.9 13 121.5 13C124.5 13 126 15 126 18C126 21 124.5 23 121.5 23C119.9 23 118.6 22.3 118 21V27H116V13ZM121.2 15C119.3 15 118 16.3 118 18C118 19.7 119.3 21 121.2 21C123.1 21 124 19.7 124 18C124 16.3 123.1 15 121.2 15Z"/>
    <path d="M131 9H133V23H131V9Z"/>
    <path d="M138 9H140V23H138V9Z"/>
    <path d="M145 13H147V23H145V13ZM145 9H147V11H145V9Z"/>
    <path d="M152 13H154V14.8C154.6 13.6 156 13 157.5 13C160.5 13 162 15 162 18C162 21 160.5 23 157.5 23C156 23 154.6 22.4 154 21.2V27H152V13ZM157.2 15C155.3 15 154 16.3 154 18C154 19.7 155.3 21 157.2 21C159.1 21 160 19.7 160 18C160 16.3 159.1 15 157.2 15Z"/>
    <path d="M167 18C167 15 168.7 13 171.5 13C174 13 175.5 14.5 175.8 16.8H173.7C173.5 15.5 172.7 15 171.5 15C169.8 15 169 16.2 169 18C169 19.8 169.8 21 171.5 21C172.7 21 173.5 20.5 173.7 19.2H175.8C175.5 21.5 174 23 171.5 23C168.7 23 167 21 167 18Z"/>
    <path d="M180 18C180 15 181.8 13 184.5 13C187.2 13 189 15 189 18C189 21 187.2 23 184.5 23C181.8 23 180 21 180 18ZM184.5 15C183 15 182 16.2 182 18C182 19.8 183 21 184.5 21C186 21 187 19.8 187 18C187 16.2 186 15 184.5 15Z"/>
  </g>
</svg>
